<svg xmlns="http://www.w3.org/2000/svg" width="20.003" height="18.008"><switch><g><path d="M10.001 12.219c2.585 0 4.687-2.739 4.687-6.107 0-3.367-2.103-6.107-4.687-6.107-2.585 0-4.687 2.74-4.687 6.107 0 3.368 2.103 6.107 4.687 6.107zm0-10.928c1.863 0 3.438 2.208 3.438 4.822 0 2.613-1.574 4.821-3.438 4.821S6.564 8.725 6.564 6.112s1.574-4.821 3.437-4.821zm9.968 15.868l-1.25-3.858a.635.635 0 00-.421-.415L13.923 11.6a.604.604 0 00-.451.043l-3.47 1.785-3.47-1.785a.605.605 0 00-.451-.043l-4.375 1.286a.635.635 0 00-.421.415l-1.25 3.858a.659.659 0 00.086.579.619.619 0 00.507.268h18.75c.201 0 .39-.1.507-.268a.661.661 0 00.084-.579zm-18.475-.441l.872-2.689 3.824-1.123 3.532 1.816a.606.606 0 00.559 0l3.532-1.816 3.824 1.123.872 2.689H1.494z" fill="#ff5100"/></g></switch></svg>