<svg opacity=".549" xmlns="http://www.w3.org/2000/svg" width="18.042" height="16.018"><switch><g><path d="M16.879.067L.388 6.839c-.534.219-.502 1.026.048 1.198l4.19 1.305 1.564 5.229c.163.547.82.712 1.2.303l2.167-2.33 4.251 3.287c.52.402 1.261.102 1.393-.563l2.816-14.185c.139-.694-.51-1.275-1.138-1.016zm-2.067 3.148l-7.66 7.139a.437.437 0 00-.136.276l-.295 2.763a.079.079 0 01-.155.015l-1.213-4.12a.444.444 0 01.176-.498l9.045-5.912c.208-.135.421.166.238.337z" fill-rule="evenodd" clip-rule="evenodd" fill="#272727"/></g></switch></svg>