<svg opacity=".549" xmlns="http://www.w3.org/2000/svg" width="20.035" height="20.034"><switch><g><path d="M19.581 4.814l-.006-.023C19.092 2.901 16.914.873 14.913.45L14.89.446a26.774 26.774 0 00-9.752 0L5.116.45C3.116.873.938 2.901.454 4.791l-.006.023a17.895 17.895 0 000 7.956l.005.022c.463 1.811 2.479 3.745 4.405 4.277v2.11c0 .765.962 1.139 1.509.588l2.209-2.223a26.894 26.894 0 006.314-.406l.023-.005c2.001-.423 4.179-2.45 4.662-4.341l.006-.023a17.861 17.861 0 000-7.955zm-1.748 7.573c-.323 1.234-1.977 2.767-3.291 3.049-1.72.318-3.455.453-5.187.406a.13.13 0 00-.092.036L7.65 17.48l-1.716 1.703c-.125.128-.346.041-.346-.133v-3.495a.12.12 0 00-.101-.117l-.001-.002c-1.314-.282-2.968-1.814-3.291-3.049a16.212 16.212 0 010-7.189c.323-1.234 1.977-2.767 3.291-3.049a24.919 24.919 0 019.055 0c1.315.282 2.968 1.816 3.291 3.049.539 2.385.539 4.804.001 7.189zM13.55 11.15a20.143 20.143 0 00-.891-.588c-.304-.186-.664-.183-.947.04-.289.231-.422.666-.834.712-.246.028-.46-.073-.674-.157-1.334-.538-2.147-1.535-2.629-2.818a.553.553 0 01.04-.499.865.865 0 01.204-.21c.089-.071.175-.145.27-.206.391-.258.45-.718.234-1.097-.35-.613-.784-1.171-1.256-1.701-.218-.245-.513-.324-.811-.185a2.994 2.994 0 00-1.011.734c-.293.337-.571.796-.382 1.243.207.491.41.982.651 1.457.508.998 1.11 1.942 1.878 2.781 1.351 1.469 3.056 2.429 4.909 3.173.179.073.371.112.573.172.176-.052.362-.08.517-.16.552-.286.934-.735 1.197-1.276.144-.295.056-.58-.199-.796-.265-.228-.551-.421-.839-.619zm-3.53-7.325c-.047-.001 2.423.063 0 0zm0 0c-.047 0-.094-.004-.141.001-.172.007-.324.146-.292.32.038.208.265.219.438.235.274.028.551.042.821.088 1.797.309 3.237 1.755 3.488 3.502.048.331.065.667.09 1.002.012.166.1.324.294.322.188-.003.287-.163.273-.33-.032-.401-.058-.806-.131-1.2-.426-2.32-2.417-3.877-4.84-3.94zm3.112 4.582c0 .076.004.156.029.226.085.239.454.208.518-.027.018-.064.02-.133.024-.164-.01-.16-.016-.282-.025-.405-.004-.049-.016-.097-.024-.147-.168-1.085-.742-1.899-1.747-2.415-.495-.253-1.032-.369-1.588-.399-.169-.01-.283.098-.29.25-.008.159.082.263.25.286.139.018.278.031.417.054.316.051.628.137.916.272a2.7 2.7 0 011.149 1.044c.258.431.37.927.371 1.425zm-.936-.02c.025-.002.02-.002.006-.002a.239.239 0 00.211-.189c.017-.074.009-.154.003-.229-.096-1.071-.768-1.54-1.707-1.606-.15-.01-.284.093-.307.227-.025.146.064.272.225.31.148.036.303.024.451.066.117.033.229.083.328.153.209.148.341.369.402.61.031.123.042.25.057.375.021.177.128.282.325.283-.046 0-.13.003.006.002z" fill="#272727"/></g></switch></svg>