<svg opacity=".502" xmlns="http://www.w3.org/2000/svg" width="18" height="18.018"><switch><g><path d="M9.163.012C4.283.012.327 3.937.327 8.78c0 1.655.463 3.205 1.268 4.528L0 18.012l4.893-1.554a8.86 8.86 0 004.271 1.089c4.881 0 8.837-3.926 8.837-8.767C18 3.937 14.043.012 9.163.012zm0 16.067a7.35 7.35 0 01-4.047-1.207l-2.827.898.919-2.71a7.22 7.22 0 01-1.401-4.279c0-4.026 3.3-7.3 7.356-7.3 4.057 0 7.357 3.274 7.357 7.3-.001 4.023-3.301 7.298-7.357 7.298zm4.143-5.307c-.222-.121-1.31-.703-1.514-.786-.204-.081-.353-.124-.512.093-.159.22-.61.707-.747.852-.137.145-.269.159-.491.037-.221-.12-.939-.384-1.772-1.178-.648-.618-1.073-1.368-1.196-1.597-.123-.228-.001-.345.116-.453.105-.097.235-.253.353-.379.117-.127.159-.218.24-.366.081-.146.048-.278-.004-.393-.052-.112-.462-1.231-.633-1.685-.171-.456-.362-.387-.493-.392-.132-.007-.281-.03-.432-.035a.834.834 0 00-.612.256c-.215.216-.818.737-.86 1.838-.041 1.102.727 2.196.834 2.349.107.154 1.466 2.541 3.725 3.523 2.259.979 2.271.681 2.686.66.415-.021 1.355-.492 1.563-1.008.208-.514.224-.963.172-1.058-.054-.096-.202-.157-.423-.278z" fill="#272727"/></g></switch></svg>