<svg xmlns="http://www.w3.org/2000/svg" width="18" height="18"><switch><g><path d="M15.366 2.634A8.939 8.939 0 009.002-.004a8.939 8.939 0 00-6.364 2.638C.938 4.333.002 6.593.002 8.997s.936 4.665 2.636 6.364a8.942 8.942 0 006.364 2.637 8.942 8.942 0 006.364-2.637c1.7-1.699 2.636-3.96 2.636-6.364s-.936-4.664-2.636-6.363zm-.795 11.931a7.82 7.82 0 01-5.568 2.306 7.82 7.82 0 01-5.568-2.306 7.817 7.817 0 01-2.307-5.568 7.82 7.82 0 012.307-5.568 7.825 7.825 0 015.568-2.307c2.103 0 4.081.82 5.568 2.307a7.82 7.82 0 012.307 5.568c0 2.104-.82 4.082-2.307 5.568zm-1.41-4.397L9.565 8.626V2.81a.563.563 0 10-1.125 0v6.187c0 .225.134.428.341.517l3.938 1.688a.562.562 0 00.442-1.034zM3.378 8.434h-.563a.562.562 0 000 1.125h.563a.562.562 0 000-1.125zm11.812 0h-.563a.562.562 0 000 1.125h.563a.561.561 0 100-1.125zM9.003 14.06a.562.562 0 00-.563.561v.562a.563.563 0 101.125 0v-.562a.562.562 0 00-.562-.561z" fill="#ff5100"/></g></switch></svg>