<svg xmlns="http://www.w3.org/2000/svg" width="19" height="26"><switch><g><path d="M9.499 6.091c-1.822 0-3.304 1.458-3.304 3.249 0 1.793 1.482 3.25 3.304 3.25 1.822 0 3.304-1.457 3.304-3.25.001-1.791-1.482-3.249-3.304-3.249zm0 4.875c-.911 0-1.652-.729-1.652-1.626 0-.895.741-1.625 1.652-1.625s1.652.729 1.652 1.625c0 .897-.741 1.626-1.652 1.626zm0-10.968c-5.238 0-9.5 4.197-9.5 9.357 0 6.341 8.502 15.959 8.865 16.365a.83.83 0 00.621.276.835.835 0 00.62-.273c.364-.407 8.924-10.027 8.894-16.371-.024-5.159-4.285-9.354-9.5-9.354zm-.012 23.927c-1.951-2.331-7.836-9.762-7.836-14.57 0-4.264 3.52-7.733 7.848-7.733 4.307 0 7.828 3.471 7.848 7.737.022 4.803-5.899 12.237-7.86 14.566z" fill="#ff5100"/></g></switch></svg>