<svg xmlns="http://www.w3.org/2000/svg" width="24" height="21"><switch><g><path d="M23.25 1.499h-3v-.75a.75.75 0 00-.75-.75h-2.25a.75.75 0 00-.75.75v.75h-9v-.75a.75.75 0 00-.75-.75H4.5a.75.75 0 00-.75.75v.75h-3a.75.75 0 00-.75.75v18a.75.75 0 00.75.749h22.5a.75.75 0 00.75-.749v-18a.75.75 0 00-.75-.75zm-5.25 0h.75v1.5H18v-1.5zm-12.75 0H6v1.5h-.75v-1.5zM22.5 19.498h-21v-16.5h2.25v.751a.75.75 0 00.75.749h2.25a.75.75 0 00.75-.749v-.751h9v.751a.75.75 0 00.75.749h2.25a.75.75 0 00.75-.749v-.751h2.25v16.5zm-15-12h-3a.75.75 0 00-.75.75v3a.75.75 0 00.75.749h3a.75.75 0 00.75-.749v-3a.75.75 0 00-.75-.75zm-.75 3h-1.5v-1.5h1.5v1.5zm6.75-3h-3a.75.75 0 00-.75.75v3a.75.75 0 00.75.749h3a.75.75 0 00.75-.749v-3a.75.75 0 00-.75-.75zm-.75 3h-1.5v-1.5h1.5v1.5zm6.75-3h-3a.75.75 0 00-.75.75v3a.75.75 0 00.75.749h3a.75.75 0 00.75-.749v-3a.75.75 0 00-.75-.75zm-.75 3h-1.5v-1.5h1.5v1.5zm-11.25 3h-3a.75.75 0 00-.75.751v3a.75.75 0 00.75.749h3a.75.75 0 00.75-.749v-3a.751.751 0 00-.75-.751zm-.75 3h-1.5v-1.5h1.5v1.5zm6.75-3h-3a.75.75 0 00-.75.751v3a.75.75 0 00.75.749h3a.75.75 0 00.75-.749v-3a.751.751 0 00-.75-.751zm-.75 3h-1.5v-1.5h1.5v1.5zm6.75-3h-3a.75.75 0 00-.75.751v3a.75.75 0 00.75.749h3a.75.75 0 00.75-.749v-3a.751.751 0 00-.75-.751zm-.75 3h-1.5v-1.5h1.5v1.5z" fill="#ff5100"/></g></switch></svg>