<svg xmlns="http://www.w3.org/2000/svg" width="17.375" height="16"><switch><g><path d="M8.705 1.091l1.912 4.31.239.539.588.051 4.751.415-3.564 3.009-.469.396.141.598 1.063 4.506-4.163-2.395-.499-.287-.498.287-4.162 2.396 1.062-4.507.141-.597-.468-.397-3.564-3.009 4.751-.414.588-.051.239-.539 1.912-4.311m0-1.095a.922.922 0 00-.847.539l-1.979 4.46-5.006.437a.918.918 0 00-.793.611.865.865 0 00.27.942l3.783 3.194-1.115 4.732a.87.87 0 00.358.916.946.946 0 001.013.044l4.316-2.485 4.316 2.484a.946.946 0 00.473.125c.19 0 .379-.056.54-.168.3-.21.44-.569.358-.917l-1.116-4.73 3.783-3.194a.866.866 0 00.27-.942.915.915 0 00-.793-.611l-5.005-.437L9.552.536a.924.924 0 00-.847-.54z" fill="#ff5100"/></g></switch></svg>