<svg xmlns="http://www.w3.org/2000/svg" width="50" height="50"><style>.st0{enable-background:new}</style><switch><g><g id="Ellipse_1_1_" class="st0"><circle transform="rotate(-6.264 25.004 25.001)" cx="25" cy="24.998" fill-rule="evenodd" clip-rule="evenodd" fill="#ff5100" id="Ellipse_1" r="25"/></g><g id="Shape_1_1_" class="st0"><path d="M32.552 28.104c-.534-.554-1.178-.851-1.86-.851-.677 0-1.326.29-1.882.845l-1.739 1.728c-.143-.077-.286-.147-.424-.219-.198-.099-.385-.192-.545-.291-1.629-1.031-3.109-2.376-4.528-4.116-.688-.866-1.15-1.596-1.486-2.337.451-.411.869-.84 1.276-1.252l.462-.466c1.155-1.152 1.155-2.644 0-3.796l-1.502-1.5a20.964 20.964 0 01-.512-.521c-.33-.34-.677-.691-1.034-1.021-.534-.527-1.172-.807-1.843-.807s-1.32.28-1.871.807l-.011.012-1.871 1.881a4.014 4.014 0 00-1.194 2.552c-.132 1.602.341 3.094.704 4.071.891 2.399 2.223 4.621 4.209 7.002 2.41 2.87 5.31 5.137 8.622 6.733 1.265.599 2.955 1.306 4.842 1.427.116.005.237.01.347.01 1.271 0 2.338-.456 3.175-1.36.005-.011.017-.017.022-.028.286-.345.616-.658.963-.992.237-.225.479-.461.715-.708.545-.565.831-1.224.831-1.899 0-.68-.292-1.333-.847-1.882l-3.019-3.022zm1.97 5.778c-.215.231-.435.439-.671.669-.358.34-.721.696-1.062 1.097-.556.593-1.211.873-2.069.873-.082 0-.171 0-.253-.006-1.634-.104-3.153-.74-4.292-1.284-3.114-1.504-5.849-3.638-8.121-6.344-1.876-2.255-3.131-4.34-3.962-6.579-.512-1.367-.699-2.43-.616-3.435a2.52 2.52 0 01.759-1.63l1.876-1.87c.27-.253.556-.39.836-.39.346 0 .627.208.803.384.006.006.011.012.017.016.336.314.655.636.99.983.171.175.347.35.523.532l1.502 1.498c.583.582.583 1.12 0 1.701-.16.159-.314.318-.473.472-.462.473-.902.911-1.381 1.34-.011.01-.022.016-.027.027-.473.472-.385.933-.286 1.246a.95.95 0 00.017.049c.391.944.941 1.833 1.777 2.892l.005.005c1.518 1.867 3.12 3.32 4.886 4.435.226.143.457.258.677.367a7.1 7.1 0 01.545.291c.022.011.044.028.066.039.187.093.363.136.545.136.457 0 .743-.284.836-.378l1.882-1.877c.187-.186.484-.412.831-.412.341 0 .622.214.792.401a.057.057 0 00.011.011l3.032 3.023c.566.56.566 1.136.005 1.718zm-4.688-13.735a6.994 6.994 0 011.97 3.786c.06.362.374.615.732.615.044 0 .083-.006.127-.011a.742.742 0 00.611-.856 8.457 8.457 0 00-2.382-4.583 8.494 8.494 0 00-4.594-2.375.745.745 0 00-.858.603.733.733 0 00.6.856 6.972 6.972 0 013.794 1.965zm4.231-4.226a13.98 13.98 0 00-7.566-3.913.74.74 0 10-.242 1.46 12.513 12.513 0 016.762 3.496 12.419 12.419 0 013.505 6.744c.06.362.374.615.732.615.044 0 .083-.006.127-.01a.728.728 0 00.605-.846 13.908 13.908 0 00-3.923-7.546z" fill="#fff" id="Shape_1"/></g></g></switch></svg>