<svg xmlns="http://www.w3.org/2000/svg" width="60" height="13.244">
    <switch>
        <g>
            <path
                    d="M17.318 1.514c0 .315 0 .236 0 0zm12.368 5.708c.513-.693.77-1.543.77-2.553 0-.732-.141-1.383-.423-1.958a4.05 4.05 0 00-1.213-1.457c-.526-.397-1.171-.699-1.934-.908A10.17 10.17 0 0024.25 0h-6.929l-.003 1.514c.01-.005 2.89-.006 2.89.001h4.042c1.014 0 1.844.2 2.396.724.552.523.828 1.333.828 2.43 0 1.098-.276 1.908-.828 2.431-.552.523-1.383.658-2.396.658h-4.042c0 .01-2.887-.01-2.887 0v5.486h2.887V9.271h4.427l2.887 3.973h3.079l-3.128-4.432c.962-.366 1.7-.895 2.213-1.59zm1.492-5.707h5.196v11.729h2.887V1.515h5.196V0h-13.28v1.515zm28.263 2.132a6.033 6.033 0 00-1.569-2.193C57.199.86 56.39.413 55.447.11c-.943-.304-1.992-.453-3.147-.453-1.155 0-2.207.149-3.156.453-.95.302-1.761.75-2.435 1.344a5.94 5.94 0 00-1.559 2.193c-.366.87-.548 1.873-.548 3.009 0 1.135.183 2.138.548 3.008.366.87.885 1.602 1.559 2.195.674.593 1.485 1.041 2.435 1.343.949.301 2.002.454 3.156.454 1.155 0 2.204-.153 3.147-.454.943-.302 1.751-.75 2.425-1.343a6.052 6.052 0 001.569-2.195c.372-.87.558-1.872.558-3.008 0-1.135-.186-2.139-.558-3.009zM56.64 9.182c-.25.714-.587 1.302-1.01 1.768a3.98 3.98 0 01-1.492 1.041c-.571.226-1.184.341-1.838.341s-1.267-.115-1.838-.341a3.957 3.957 0 01-1.491-1.041c-.423-.467-.76-1.055-1.01-1.768-.25-.713-.375-1.554-.375-2.526 0-.972.125-1.812.375-2.526.25-.712.587-1.302 1.01-1.768a3.99 3.99 0 011.491-1.041c.571-.227 1.184-.34 1.838-.34s1.267.113 1.838.34a4.014 4.014 0 011.492 1.041c.423.466.76 1.056 1.01 1.768.25.714.375 1.554.375 2.526.001.972-.124 1.813-.375 2.526z"
                    fill="#fff" opacity=".6"/>
            <path fill-rule="evenodd" clip-rule="evenodd" fill="#dd142f"
                  d="M10.008 0H5.581L-.001 13.244h2.887L7.65 1.642h.192l4.668 11.602h2.886z"/>
        </g>
    </switch>
</svg>