<svg xmlns="http://www.w3.org/2000/svg" width="60" height="38">
    <style>.st0{enable - background:new}</style>
    <switch>
        <g>
            <g id="Rectangle_1_copy_7_1_" class="st0">
                <path fill-rule="evenodd" clip-rule="evenodd" fill="#fff"
                      d="M0-.006h60v38.001H0z" id="Rectangle_1_copy_7"/>
            </g>
            <g id="Shape_200_1_" class="st0">
                <path
                        d="M9.422 17.777l-.297 1.203c.337.086 1.378.431 1.547-.25.175-.71-.912-.869-1.25-.953zm-.448 1.811l-.328 1.328c.405.102 1.655.506 1.84-.243.193-.781-1.106-.983-1.512-1.085zm1.793-5.398c-2.919-.733-5.876 1.059-6.603 4.005-.728 2.945 1.049 5.927 3.967 6.662 2.92.734 5.876-1.057 6.604-4.003.728-2.946-1.048-5.928-3.968-6.664zm1.085 4.551c-.078.536-.373.795-.763.886.536.281.81.714.549 1.462-.323.93-1.089 1.009-2.109.815l-.247 1-.598-.15.244-.987a31.713 31.713 0 01-.477-.125l-.245.991-.597-.151.247-1.001-.426-.112-.778-.196.297-.69s.441.118.435.109c.169.043.244-.068.274-.143l.391-1.582.063.016a.608.608 0 00-.062-.02l.279-1.129c.007-.128-.036-.29-.279-.351a8.331 8.331 0 00-.434-.109l.159-.644.825.209-.001.004c.124.031.252.06.382.091l.245-.991.598.151-.24.971c.16.037.322.074.479.114l.238-.965.598.15-.245.991c.755.261 1.307.654 1.198 1.386z"
                        fill="#f7921a" id="Shape_200"/>
            </g>
            <g id="Shape_201_1_" class="st0">
                <path
                        d="M21.864 18.179a2.324 2.324 0 00-.799-.638c-.32-.155-.7-.236-1.14-.236-.21 0-.407.024-.591.071a3.39 3.39 0 00-.549.193l.851-3.572-2.129.333-2.378 10.066c.266.129.548.231.846.305.297.074.579.129.845.167.265.036.501.058.707.062.206.005.351.006.434.006.64 0 1.237-.123 1.785-.366a4.497 4.497 0 001.429-.996 4.69 4.69 0 00.955-1.483c.234-.567.35-1.17.35-1.807 0-.415-.05-.803-.15-1.164a2.678 2.678 0 00-.466-.941zm-1.595 3.296a3.188 3.188 0 01-.488.893 2.4 2.4 0 01-.736.631 1.867 1.867 0 01-.907.235h-.247a1.562 1.562 0 01-.295-.029c-.041-.009-.09-.017-.144-.027l.907-3.794a1.25 1.25 0 01.557-.292c.206-.044.372-.069.501-.069.393 0 .664.126.811.374.146.251.22.596.22 1.038 0 .361-.06.708-.179 1.04zm5.41-4.901c.192 0 .372-.036.543-.11a1.44 1.44 0 00.755-.74c.078-.171.117-.353.117-.548 0-.349-.115-.611-.343-.782a1.254 1.254 0 00-.769-.257c-.193 0-.374.037-.544.111a1.472 1.472 0 00-.756.741 1.316 1.316 0 00-.116.547c0 .351.114.613.344.782.228.17.485.256.769.256zm-3.024 8.169h2.034l1.732-7.283h-2.048l-1.718 7.283zm6.757-5.594h2.268l.412-1.689H29.81l.523-2.146-2.13.332-1.347 5.733c-.11.47-.173.918-.192 1.344-.018.424.047.801.192 1.128.147.328.394.586.742.776.349.188.839.283 1.471.283.439 0 .82-.036 1.141-.11.321-.074.618-.16.893-.262l-.152-1.58a4.49 4.49 0 01-.624.173 3.292 3.292 0 01-.64.063c-.266 0-.47-.037-.611-.112a.59.59 0 01-.295-.311 1.09 1.09 0 01-.068-.477c.009-.185.04-.383.096-.595l.603-2.55zm6.92-.139c.284 0 .525.03.721.09.197.06.387.126.57.201l.702-1.607a4.486 4.486 0 00-.887-.311 4.695 4.695 0 00-1.106-.118c-.659 0-1.258.121-1.792.359a4.07 4.07 0 00-1.368.984c-.376.415-.665.9-.866 1.454a5.163 5.163 0 00-.302 1.773c0 .414.058.811.173 1.19.114.378.299.708.557.99.256.282.582.504.975.672.393.165.875.249 1.443.249.43 0 .802-.041 1.114-.117.311-.08.595-.171.852-.271l-.152-1.648a3.859 3.859 0 01-.66.209 3.584 3.584 0 01-.77.082c-.54 0-.912-.145-1.113-.436-.202-.291-.303-.672-.303-1.142 0-.795.2-1.428.598-1.899.398-.468.935-.704 1.614-.704zm8.066-.9a2.36 2.36 0 00-.893-.623 3.314 3.314 0 00-1.259-.222c-.65 0-1.228.141-1.731.421a4.24 4.24 0 00-1.277 1.089c-.349.442-.613.94-.791 1.495a5.369 5.369 0 00-.267 1.663c0 .442.058.846.178 1.21.12.365.295.681.529.948.234.269.529.476.886.623.358.149.779.223 1.265.223.669 0 1.258-.141 1.766-.424a4.019 4.019 0 001.271-1.086c.339-.444.596-.943.77-1.495a5.56 5.56 0 00.26-1.662 3.85 3.85 0 00-.179-1.211 2.698 2.698 0 00-.528-.949zm-1.442 3.276a3.287 3.287 0 01-.352.878c-.156.268-.349.49-.577.665-.23.177-.495.263-.797.263-.385 0-.65-.13-.797-.387-.145-.26-.219-.62-.219-1.081 0-.287.038-.589.116-.907.079-.319.195-.611.352-.88.155-.267.347-.489.577-.665a1.28 1.28 0 01.796-.262c.385 0 .651.13.797.388.147.258.22.619.22 1.081 0 .285-.039.588-.116.907zm5.354-4.812c.193 0 .374-.036.544-.11a1.437 1.437 0 00.754-.74c.077-.171.118-.353.118-.548 0-.349-.116-.611-.344-.782a1.257 1.257 0 00-.77-.257c-.192 0-.373.037-.542.111a1.454 1.454 0 00-.757.741 1.317 1.317 0 00-.117.547c0 .351.115.613.344.782.229.17.486.256.77.256zm-1.307.886l-1.718 7.283h2.036l1.731-7.283h-2.049zm8.648.775c-.408-.628-1.148-.943-2.221-.943a8.501 8.501 0 00-1.765.175c-.235.05-.445.106-.633.165-.188.059-.36.114-.514.159l-1.664 6.951h2.048l1.333-5.635c.275-.056.545-.084.81-.084.275 0 .478.053.612.158a.719.719 0 01.253.417c.038.172.04.37.007.595-.032.228-.076.46-.131.7l-.907 3.85h2.047l.936-3.932c.267-1.09.197-1.947-.211-2.576z"
                        fill="#4d4d4d" id="Shape_201"/>
            </g>
        </g>
    </switch>
</svg>