<svg xmlns="http://www.w3.org/2000/svg" width="22" height="22">
    <switch>
        <g>
            <path
                    d="M15.928-.003H6.071A6.078 6.078 0 000 6.069v9.857a6.079 6.079 0 006.071 6.072h9.858A6.078 6.078 0 0022 15.926V6.069a6.079 6.079 0 00-6.072-6.072zm.001 20.049H6.071a4.124 4.124 0 01-4.119-4.12V6.069A4.123 4.123 0 016.071 1.95h9.858a4.124 4.124 0 014.119 4.119v9.857a4.124 4.124 0 01-4.119 4.12zM11 5.329a5.676 5.676 0 00-5.669 5.67A5.676 5.676 0 0011 16.668a5.676 5.676 0 005.669-5.669A5.675 5.675 0 0011 5.329zm0 9.385a3.721 3.721 0 01-3.717-3.716A3.722 3.722 0 0111 7.28a3.72 3.72 0 013.717 3.718A3.721 3.721 0 0111 14.714zm5.906-11.04a1.436 1.436 0 00-1.431 1.431c0 .376.154.747.42 1.013.266.265.635.419 1.011.419.377 0 .746-.154 1.012-.419a1.435 1.435 0 000-2.025 1.434 1.434 0 00-1.012-.419z"
                    fill="#fff"
            />
        </g>
    </switch>
</svg>