<svg xmlns="http://www.w3.org/2000/svg" width="167" height="63"><style>.st0{enable-background:new}</style><switch><g><g id="Shape_217_1_" class="st0"><path d="M42.511 56.989c2.059 0 3.744-1.691 3.744-3.757V13.527L17.594 56.989h24.917zm23.92-23.502c4.521 0 6.726 2.091 7.922 5.265h2.019c-.86-4.08-4.185-7.008-9.828-7.008-7.624 0-11.511 5.996-11.511 12.587 0 6.868 3.962 12.446 11.473 12.446 5.53 0 8.596-2.928 9.828-6.798h-2.017c-1.308 2.998-3.476 5.055-7.736 5.055-6.688 0-9.379-5.508-9.379-10.739-.001-5.265 2.726-10.808 9.229-10.808zm22.21-1.395l-9.603 24.407h2.055l3.326-8.438h11.024l3.4 8.438h2.205L91.033 32.092h-2.392zm-3.513 14.226c2.355-6.206 4.036-10.53 4.672-12.378h.036c.523 1.638 2.019 5.126 4.932 12.378h-9.64zm37.831-7.81c0-3.836-2.728-6.416-7.885-6.416h-9.379v24.407h2.055V45.097h6.428c5.007 0 6.277 1.673 6.277 5.683v.627c0 2.093-.111 4.044.374 5.091h2.055c-.485-.941-.336-3.242-.336-4.951v-.941c0-4.149-1.794-5.787-4.485-6.381 2.915-.593 4.896-2.614 4.896-5.717zm-8.894 4.846h-6.315v-9.519h6.877c4.073 0 6.165 1.709 6.165 4.707-.001 3.208-2.131 4.812-6.727 4.812zm23.03-.663c-4.82-1.116-6.539-2.162-6.539-4.846 0-2.72 2.055-4.358 5.83-4.358 4.111 0 5.941 1.882 6.539 4.497h2.093c-.336-2.962-2.766-6.24-8.521-6.24-5.605 0-8.109 2.998-8.109 6.206 0 3.521 2.392 5.195 7.923 6.484 5.754 1.326 7.062 3.034 7.062 5.789 0 2.65-1.832 4.881-6.615 4.881-4.296 0-6.613-1.917-7.398-5.161h-2.094c.487 3.278 2.878 6.834 9.417 6.834 6.054 0 8.857-3.103 8.857-6.694.002-2.929-1.083-5.683-8.445-7.392z" fill="#fff" id="Shape_217"/></g><g id="Shape_217_copy_1_" class="st0"><path d="M-.002 3.758v59.239l29.077-43.208H6.172l7.803-11.021H41.51L47.17.001H3.741C1.682.001-.002 1.692-.002 3.758zm64.526 7.496c-4.82-1.116-6.539-2.162-6.539-4.846 0-2.72 2.055-4.358 5.83-4.358 4.111 0 5.941 1.883 6.539 4.497h2.093c-.336-2.964-2.766-6.24-8.521-6.24-5.605 0-8.109 2.998-8.109 6.206 0 3.522 2.392 5.195 7.923 6.484 5.754 1.326 7.062 3.034 7.062 5.789 0 2.649-1.832 4.881-6.615 4.881-4.296 0-6.613-1.917-7.398-5.16h-2.093c.487 3.277 2.878 6.835 9.417 6.835 6.054 0 8.856-3.104 8.856-6.694 0-2.931-1.083-5.685-8.445-7.394zm16.192 1.814h13.341v-1.745H80.716V2.398H94.73V.655H78.699v24.407H95.03l.298-1.743H80.716V13.068zm32.45.487c-1.458 3.591-3.251 7.88-3.813 9.694h-.075c-.56-2.057-2.204-6.137-3.662-9.833L100.533.655h-2.167l9.715 24.407h2.392L120.563.655h-2.13l-5.267 12.9zm13.876-.487h13.339v-1.745h-13.339V2.398h14.012V.655h-16.031v24.407h16.33l.298-1.743h-14.61V13.068zM164.945.655v11.053c0 3.975-.038 7.566.187 11.086h-.038c-1.645-2.649-11.211-16.281-15.284-22.14h-2.989v24.407h2.055V13.73c0-4.428.038-7.985-.149-11.192h.037c1.868 2.684 11.585 16.875 15.471 22.523h2.766V.655h-2.056z" fill="#ff5100" id="Shape_217_copy"/></g></g></switch></svg>