<svg xmlns="http://www.w3.org/2000/svg" width="60" height="38">
    <style>.st0{enable - background:new}</style>
    <switch>
        <g>
            <g id="Rectangle_1_copy_5_1_" className="st0">
                <path fill-rule="evenodd" clip-rule="evenodd" fill="#fff"
                      d="M0-.006h60v38.001H0z" id="Rectangle_1_copy_5"/>
            </g>
            <g id="Shape_199_1_" className="st0">
                <path
                        d="M24.586 12.977l-2.085 12.515h3.335l2.086-12.515h-3.336zm-4.891 0l-3.18 8.607-.377-1.852-1.122-5.628s-.135-1.127-1.582-1.127l-5.257.082.164.096s1.383.36 3.265 1.465l2.898 10.873h3.475l5.307-12.515h-3.591zm26.63 0h-2.682c-1.238 0-1.54.931-1.54.931l-4.975 11.584h3.477l.696-1.858h4.24l.391 1.858h3.063l-2.67-12.515zm-4.063 8.088l1.752-4.684.986 4.684h-2.738zm-9.549-4.614c0-1.415 3.249-1.232 4.676-.465l.476-2.687s-1.469-.544-3-.544c-1.656 0-5.587.705-5.587 4.142 0 3.234 4.614 3.273 4.614 4.971s-4.138 1.394-5.505.324l-.496 2.81s1.489.706 3.766.706c2.276 0 5.711-1.152 5.711-4.285.001-3.254-4.655-3.558-4.655-4.972z"
                        fill="#0066b2" id="Shape_199"/>
            </g>
            <g id="Shape_199_copy_1_" className="st0">
                <path
                        d="M15.051 14.29s-.07-1.31-1.541-1.31H8.059l-.068.152s2.57.529 5.035 2.51c2.357 1.895 3.168 4.363 3.168 4.363l-1.143-5.715z"
                        fill-rule="evenodd" clip-rule="evenodd" fill="#f9a533"
                        id="Shape_199_copy"/>
            </g>
        </g>
    </switch>
</svg>