<svg xmlns="http://www.w3.org/2000/svg" width="22" height="24"><switch><g><path d="M21.614 12.399a2.406 2.406 0 00-.854-1.326 2.871 2.871 0 00-1.522-.629c-1.821-.179-4.567-.267-8.239-.267-3.672 0-6.413.088-8.224.267a2.845 2.845 0 00-1.529.629c-.436.358-.723.8-.861 1.326C.129 13.435 0 14.997 0 17.086c0 2.126.129 3.687.386 4.688.129.526.413.969.854 1.326.44.356.947.562 1.522.617 1.821.187 4.567.281 8.239.281 3.671 0 6.418-.094 8.238-.281a2.745 2.745 0 001.514-.617c.435-.357.723-.799.861-1.326.257-1.036.386-2.598.386-4.688 0-2.125-.129-3.687-.386-4.687zM6.28 13.752H4.691v7.62H3.207v-7.62H1.648v-1.259H6.28v1.259zm4.008 7.62H8.966v-.723c-.534.545-1.039.818-1.514.818-.455 0-.742-.166-.861-.496-.079-.214-.119-.54-.119-.978v-5.237h1.321v4.875c0 .286.005.442.015.469.03.187.133.281.312.281.267 0 .549-.187.846-.562v-5.063h1.321v6.616zm5.047-1.981c0 .651-.044 1.098-.133 1.339-.169.49-.52.737-1.054.737-.475 0-.935-.246-1.381-.737v.643h-1.321v-8.879h1.321V15.4c.426-.483.886-.724 1.381-.724.534 0 .885.251 1.054.75.089.232.133.674.133 1.326v2.639zm5.017-1.099h-2.657v1.165c0 .616.227.924.683.924.327 0 .525-.16.594-.482.02-.089.03-.361.03-.817h1.351v.175c0 .437-.01.696-.03.777a1.522 1.522 0 01-.312.723c-.356.473-.891.71-1.604.71-.682 0-1.217-.228-1.603-.683-.287-.33-.43-.848-.43-1.553v-2.318c0-.705.138-1.223.415-1.553.386-.456.916-.683 1.589-.683.663 0 1.188.227 1.574.683.268.33.401.848.401 1.553v1.379zm-6.918-2.531c-.228 0-.45.099-.668.294v4.03c.218.197.44.295.668.295.386 0 .579-.298.579-.898v-2.825c0-.597-.192-.896-.579-.896zm4.929 0c-.445 0-.668.303-.668.91v.616h1.336v-.616c0-.607-.223-.91-.668-.91zM5.419 5.341V8.97h1.484V5.341L8.699-.003H7.185L6.176 3.519 5.122-.002H3.548c.277.75.599 1.584.965 2.505.466 1.231.767 2.177.906 2.838zm5.269 3.723c.683 0 1.207-.227 1.573-.683.277-.329.416-.856.416-1.579V4.457c0-.715-.139-1.237-.416-1.567-.366-.456-.891-.683-1.573-.683-.663 0-1.183.227-1.559.683-.277.33-.415.852-.415 1.567v2.344c0 .715.138 1.241.415 1.579.377.457.896.684 1.559.684zm-.638-4.848c0-.615.213-.923.638-.923s.638.308.638.923v2.813c0 .625-.213.937-.638.937s-.638-.311-.638-.937V4.216zm4.72 4.848c.495 0 1.005-.276 1.529-.83v.736h1.351V2.288h-1.351v5.103c-.297.383-.579.575-.846.575-.178 0-.282-.098-.312-.295-.01-.017-.015-.173-.015-.469V2.288h-1.351v5.277c0 .456.04.789.119 1.005.129.329.421.494.876.494z" fill="#fff"/></g></switch></svg>