<svg xmlns="http://www.w3.org/2000/svg" width="668" height="252" style="enable-background:new 0 0 668 252" xml:space="preserve"><style>.st0{enable-background:new}</style><g id="Shape_217_1_" class="st0"><path d="M170.043 227.958c8.236 0 14.975-6.763 14.975-15.029V54.11L70.374 227.958h99.669zm95.68-94.01c18.085 0 26.903 8.365 31.687 21.06h8.075c-3.438-16.32-16.74-28.032-39.312-28.032-30.495 0-46.043 23.983-46.043 50.346 0 27.472 15.847 49.786 45.89 49.786 22.121 0 34.384-11.713 39.313-27.192h-8.07c-5.233 11.99-13.905 20.22-30.944 20.22-26.752 0-37.517-22.032-37.517-42.955 0-21.06 10.911-43.233 36.92-43.233zm88.842-5.582-38.412 97.63h8.221l13.304-33.751h44.095l13.6 33.75h8.819l-40.062-97.63h-9.565zm-14.052 56.905c9.42-24.823 16.145-42.117 18.689-49.512h.146c2.093 6.554 8.075 20.504 19.729 49.512h-38.564zm151.322-31.238c0-15.344-10.912-25.667-31.541-25.667h-37.517v97.63h8.221v-45.607h25.711c20.028 0 25.109 6.695 25.109 22.733v2.51c0 8.37-.444 16.179 1.497 20.364h8.221c-1.94-3.766-1.345-12.97-1.345-19.807v-3.764c0-16.598-7.174-23.15-17.94-25.522 11.66-2.374 19.584-10.46 19.584-22.87zm-35.576 19.382H431V135.34h27.506c16.29 0 24.658 6.837 24.658 18.829 0 12.831-8.52 19.247-26.904 19.247zm92.122-2.65c-19.278-4.463-26.155-8.648-26.155-19.386 0-10.879 8.221-17.431 23.32-17.431 16.443 0 23.763 7.53 26.155 17.987h8.374c-1.345-11.848-11.064-24.96-34.085-24.96-22.419 0-32.436 11.993-32.436 24.825 0 14.087 9.566 20.78 31.693 25.937 23.016 5.303 28.249 12.134 28.249 23.154 0 10.601-7.327 19.528-26.46 19.528-17.185 0-26.454-7.671-29.594-20.646h-8.373c1.948 13.111 11.513 27.335 37.669 27.335 24.214 0 35.43-12.413 35.43-26.777 0-11.715-4.34-22.73-33.787-29.566z" style="fill:#1d252c" id="Shape_217"/></g><g id="Shape_217_copy_1_" class="st0"><path d="M-.01 15.032V251.99L116.298 79.155H24.686L55.898 35.07h110.14L188.678.004H14.966C6.729.004-.01 6.767-.01 15.032zm258.107 29.984c-19.278-4.462-26.155-8.647-26.155-19.384 0-10.88 8.222-17.432 23.32-17.432 16.442 0 23.763 7.53 26.155 17.99h8.374c-1.345-11.857-11.064-24.962-34.085-24.962-22.42 0-32.436 11.993-32.436 24.825 0 14.085 9.566 20.78 31.693 25.937 23.016 5.303 28.25 12.134 28.25 23.154 0 10.596-7.328 19.52-26.46 19.52-17.186 0-26.454-7.664-29.594-20.637h-8.374c1.947 13.11 11.514 27.338 37.67 27.338 24.214 0 35.423-12.418 35.423-26.777 0-11.72-4.333-22.733-33.78-29.572zm64.768 7.258h53.364v-6.98h-53.364V9.592h56.054V2.62h-64.124v97.627h65.322l1.193-6.972h-58.445V52.274zm129.798 1.946c-5.83 14.367-13.005 31.52-15.25 38.777h-.299c-2.24-8.23-8.817-24.547-14.648-39.333L402.135 2.62h-8.666l38.862 97.627h9.567L482.256 2.62h-8.52l-21.073 51.6zm55.505-1.946h53.358v-6.98h-53.358V9.592h56.048V2.62h-64.123v97.627h65.322l1.192-6.972h-58.439V52.274zM659.782 2.62v44.214c0 15.898-.152 30.263.749 44.345h-.152C653.8 80.584 615.533 26.053 599.243 2.62h-11.958v97.627h8.22V54.919c0-17.71.153-31.94-.595-44.766h.146c7.473 10.738 46.341 67.5 61.883 90.094h11.064V2.62h-8.222z" style="fill:#ff5100" id="Shape_217_copy"/></g></svg>