<svg xmlns="http://www.w3.org/2000/svg" width="26.008" height="26"><switch><g><path d="M20.569 16.103c-.533-.555-1.176-.85-1.858-.85-.676 0-1.325.291-1.88.845l-1.737 1.729c-.143-.078-.286-.149-.423-.22-.198-.099-.385-.192-.544-.291-1.627-1.032-3.105-2.376-4.523-4.116-.687-.868-1.149-1.597-1.484-2.337.451-.413.868-.84 1.275-1.252.154-.153.308-.312.462-.466 1.154-1.152 1.154-2.645 0-3.798l-1.5-1.498c-.17-.17-.346-.346-.511-.522-.33-.34-.676-.691-1.033-1.02C6.279 1.78 5.641 1.5 4.971 1.5c-.67 0-1.319.28-1.869.807l-.011.01L1.223 4.2A4.013 4.013 0 00.03 6.752c-.132 1.603.341 3.094.703 4.072.89 2.397 2.22 4.62 4.204 7.003 2.407 2.87 5.304 5.135 8.612 6.732 1.264.598 2.951 1.307 4.836 1.426.115.006.236.011.346.011 1.27 0 2.336-.455 3.171-1.36.005-.011.016-.016.022-.027.286-.346.616-.658.962-.993.236-.225.478-.461.714-.708.544-.565.83-1.223.83-1.899 0-.68-.291-1.333-.846-1.881l-3.015-3.025zm1.967 5.779c-.214.23-.434.439-.67.67-.357.34-.72.697-1.061 1.097-.555.592-1.209.873-2.066.873-.083 0-.17 0-.253-.006-1.632-.104-3.149-.74-4.287-1.284-3.111-1.503-5.842-3.637-8.112-6.342-1.874-2.255-3.127-4.341-3.957-6.579-.512-1.369-.698-2.434-.616-3.438a2.515 2.515 0 01.758-1.629l1.874-1.872c.27-.252.556-.39.836-.39.346 0 .627.208.802.385l.017.016c.335.313.654.637.989.982.17.176.346.351.522.533l1.5 1.499c.583.581.583 1.119 0 1.7-.159.159-.313.319-.472.472-.462.473-.901.911-1.38 1.339-.01.011-.022.016-.027.027-.473.472-.385.933-.286 1.246l.017.049c.39.943.94 1.833 1.775 2.892l.005.005c1.517 1.866 3.116 3.321 4.88 4.434.225.142.456.258.676.368.198.099.385.192.544.291.022.01.044.027.066.038.187.093.363.137.544.137.456 0 .742-.286.835-.378l1.88-1.877c.187-.186.484-.411.83-.411.341 0 .621.214.791.4a.057.057 0 00.011.011l3.028 3.023c.568.561.568 1.136.007 1.719zM17.853 8.146a7.003 7.003 0 011.968 3.788c.06.362.374.614.731.614.044 0 .083-.006.126-.01a.743.743 0 00.61-.857 8.46 8.46 0 00-2.38-4.583 8.482 8.482 0 00-4.589-2.376.746.746 0 00-.857.604c-.071.4.192.79.599.855a6.986 6.986 0 013.792 1.965zm4.227-4.225A13.953 13.953 0 0014.523.009a.738.738 0 00-.852.603.745.745 0 00.61.857 12.506 12.506 0 016.755 3.494 12.425 12.425 0 013.501 6.745c.06.362.374.615.731.615.044 0 .082-.006.126-.012a.727.727 0 00.605-.845 13.926 13.926 0 00-3.919-7.545z" fill="#ff5100"/></g></switch></svg>