<svg xmlns="http://www.w3.org/2000/svg" width="17.348" height="16"><switch><g><path d="M16.501 5.432l-5.005-.437L9.517.535A.921.921 0 008.694 0h-.05a.92.92 0 00-.823.536l-1.979 4.46-5.005.436a.918.918 0 00-.792.611A.885.885 0 000 6.3v.002a.87.87 0 00.315.683l3.783 3.194-1.115 4.732a.87.87 0 00.358.916.946.946 0 001.013.044l4.316-2.485 4.316 2.484a.951.951 0 001.013-.043c.3-.21.44-.569.358-.917l-1.116-4.73 3.783-3.194a.866.866 0 00.27-.942.914.914 0 00-.793-.612zm2.709.611a.865.865 0 00.27.942l.52.439V5.433a.917.917 0 00-.79.61z" fill="#ff5100"/></g></switch></svg>